<svg width="64" height="55" viewBox="0 0 64 55" fill="none" xmlns="http://www.w3.org/2000/svg">
<path d="M59.5644 39.1953H4.43564C1.98591 39.1953 0 41.1766 0 43.6206V50.5746C0 53.0186 1.98591 54.9999 4.43564 54.9999H59.5644C62.0141 54.9999 64 53.0186 64 50.5746V43.6206C64 41.1766 62.0141 39.1953 59.5644 39.1953Z" fill="#FFB655"/>
<path d="M33.5837 0H30.4154C28.6656 0 27.2471 1.41519 27.2471 3.16092V42.9885C27.2471 44.7342 28.6656 46.1494 30.4154 46.1494H33.5837C35.3335 46.1494 36.752 44.7342 36.752 42.9885V3.16092C36.752 1.41519 35.3335 0 33.5837 0Z" fill="#FFB655"/>
<path d="M52.9102 27.8166C54.4851 27.8166 55.7617 26.5429 55.7617 24.9718C55.7617 23.4006 54.4851 22.127 52.9102 22.127L11.0885 22.127C9.51362 22.127 8.23697 23.4006 8.23697 24.9718C8.23697 26.5429 9.51362 27.8166 11.0885 27.8166L52.9102 27.8166Z" fill="#FFB655"/>
<path d="M43.4219 48.3463C44.2881 49.2104 45.6923 49.2104 46.5584 48.3463L60.6725 34.2651C61.5387 33.401 61.5387 32.0001 60.6725 31.136C59.8064 30.2719 58.4022 30.2719 57.5361 31.136L44.9902 43.6526L32.4443 31.136C31.5782 30.2719 30.1739 30.2719 29.3078 31.136C28.4417 32.0001 28.4417 33.401 29.3078 34.2651L43.4219 48.3463ZM47.208 8.2185C47.208 6.99649 46.215 6.00586 44.9902 6.00586C43.7653 6.00586 42.7723 6.99649 42.7723 8.2185H47.208ZM47.208 46.7817V8.2185H42.7723V46.7817H47.208Z" fill="#FE5023"/>
</svg>
