<svg  viewBox="0 0 75 75" fill="none" xmlns="http://www.w3.org/2000/svg">
<path fill-rule="evenodd" clip-rule="evenodd" d="M23.0281 0.0872402C22.8494 0.121832 22.5362 0.348729 22.3319 0.591604L21.9604 1.03294L21.9651 7.87417C21.9701 15.1372 21.948 14.9073 22.6894 15.4182C23.3745 15.8905 24.4055 15.5875 24.8162 14.7934C25.1548 14.1386 25.1482 1.5011 24.8091 0.845178C24.6077 0.455729 23.7962 -0.0527386 23.4676 0.00442552C23.4045 0.0154186 23.2068 0.0526486 23.0281 0.0872402ZM59.1183 0.148508C56.7706 0.439019 54.098 1.57717 52.2341 3.08C51.667 3.53732 48.0157 7.10582 44.12 11.01C37.5475 17.5971 37.032 18.1501 36.9666 18.6839C36.8286 19.8109 37.7947 20.6399 38.8899 20.3342C39.1933 20.2495 41.576 17.9721 46.5853 12.9792C50.5763 9.00147 54.1053 5.54671 54.4278 5.30193C57.5389 2.94076 62.2308 2.5173 65.7343 4.28162C67.9988 5.42197 69.5483 6.97347 70.6925 9.24625C71.5897 11.0283 71.8495 12.3148 71.7621 14.5438C71.7077 15.9349 71.6079 16.5857 71.3089 17.5002C70.5159 19.9254 70.7651 19.6447 58.685 31.7244C46.605 43.804 46.8857 43.5548 44.4604 44.3478C42.9283 44.8487 40.3131 44.9776 38.6832 44.6325C37.2265 44.3241 35.1719 43.2912 33.857 42.2062C32.5926 41.1629 31.9838 41.0437 31.2169 41.6889C30.1939 42.5496 30.5054 43.5241 32.2462 44.9099C33.7511 46.1077 35.666 47.0631 37.5816 47.5713C38.8279 47.902 39.3317 47.9569 41.089 47.9543C42.81 47.9515 43.3688 47.8911 44.5514 47.5795C46.1396 47.1612 47.9896 46.2914 49.2975 45.348C49.7812 44.9993 55.1586 39.7121 61.2474 33.5988C73.148 21.6501 72.8833 21.9474 73.9541 19.3324C76.0818 14.1364 74.8614 8.1572 70.8552 4.15132C68.6022 1.89817 65.799 0.532241 62.6362 0.14631C61.1546 -0.0345633 60.5947 -0.0341236 59.1183 0.148508ZM6.7748 6.78556C6.36203 7.19831 6.27643 7.39252 6.27643 7.91638V8.549L11.1502 13.4381C13.8307 16.1271 16.2021 18.4214 16.4197 18.5366C17.8543 19.2957 19.3847 17.7063 18.4781 16.3988C18.3377 16.1961 16.0058 13.838 13.2961 11.1588C8.59238 6.50751 8.34481 6.2872 7.82138 6.2872C7.39336 6.2872 7.16397 6.3964 6.7748 6.78556ZM0.699667 22.1586C-0.00537992 22.7141 -0.185819 23.436 0.195874 24.1742C0.648511 25.0494 0.643527 25.0488 7.81551 25.0488C15.0756 25.0488 15.0476 25.0523 15.4473 24.0954C15.7235 23.4344 15.5729 22.7818 15.041 22.3342L14.609 21.9707L7.76758 21.9754C2.61751 21.9789 0.870286 22.0242 0.699667 22.1586ZM30.9018 27.3759C30.2165 27.5254 29.1419 27.8617 28.514 28.1233C26.0134 29.1647 25.9066 29.2607 13.8947 41.2942C1.97198 53.2386 2.21134 52.973 1.09998 55.4881C0.289245 57.3232 0.0714277 58.4814 0.0714277 60.9596C0.0714277 62.8348 0.126835 63.4339 0.388919 64.3906C1.15157 67.1756 2.36466 69.2117 4.43832 71.1868C7.24708 73.8621 10.7774 75.1761 14.6315 74.981C16.5247 74.8852 17.6069 74.6573 19.3377 73.9898C21.707 73.0762 22.4418 72.443 30.5353 64.3393L38.0109 56.8544V56.1833C38.0109 55.6106 37.9407 55.4495 37.5322 55.0846C37.0209 54.6277 36.4066 54.5314 35.8392 54.8193C35.6631 54.9085 32.221 58.2635 28.1901 62.2746C24.1591 66.2856 20.5643 69.7655 20.2015 70.0075C18.2281 71.3239 16.4442 71.8609 14.0451 71.8609C10.9623 71.8609 8.60191 70.8928 6.40762 68.728C3.33692 65.6989 2.3333 61.4932 3.71305 57.4366C4.52744 55.0425 4.43481 55.1471 15.8602 43.6904C21.6742 37.8604 26.8264 32.791 27.3096 32.425C28.4111 31.5905 29.5037 31.0356 30.9069 30.5982C32.4917 30.1043 35.3346 30.103 36.9115 30.5956C38.4603 31.0794 40.0541 31.9445 41.1343 32.8879C42.1827 33.8034 42.545 33.9417 43.2679 33.7033C44.3704 33.3393 44.614 32.0802 43.7684 31.1171C42.567 29.7488 39.8805 28.1758 37.6444 27.5313C36.0603 27.0747 32.644 26.996 30.9018 27.3759ZM60.291 47.0915C59.8826 47.2696 59.6357 47.6009 59.4263 48.2524C59.3086 48.6184 59.6769 49.4394 60.0882 49.7274C60.3918 49.9401 61.1827 49.9665 67.2646 49.9665H74.0999L74.4819 49.6125C75.24 48.91 75.1551 47.7975 74.2996 47.2208L73.8062 46.8884L67.2684 46.8941C62.2161 46.8985 60.6307 46.9434 60.291 47.0915ZM57.009 53.3957C56.2849 53.797 56.0422 54.8556 56.5181 55.5363C56.6592 55.7378 58.9887 58.0958 61.6952 60.7763C66.1232 65.1619 66.6635 65.65 67.0909 65.65C68.0841 65.65 68.7111 65.0314 68.716 64.0469L68.7193 63.3965L63.8455 58.5024C61.1649 55.8107 58.7936 53.5145 58.576 53.3997C58.0861 53.1416 57.4703 53.1399 57.009 53.3957ZM50.8018 56.4986C49.96 56.9553 49.9571 56.9817 49.9571 64.035C49.9571 71.2985 49.9631 71.3467 50.9198 71.7464C51.6035 72.0321 52.1483 71.9096 52.6848 71.3497L53.1086 70.9076V64.197C53.1086 56.888 53.1106 56.9069 52.2782 56.4766C51.7715 56.2145 51.3128 56.2214 50.8018 56.4986Z" fill="#FE5023"/>
</svg>
