<svg width="80" height="80" viewBox="0 0 80 80" fill="none" xmlns="http://www.w3.org/2000/svg">
<path d="M36.6673 39.9987C36.6673 38.1578 38.1597 36.6654 40.0007 36.6654C41.8416 36.6654 43.334 38.1578 43.334 39.9987C43.334 41.8396 41.8416 43.332 40.0007 43.332C38.1597 43.332 36.6673 41.8396 36.6673 39.9987Z" fill="#303437"/>
<path d="M40.1673 39.9987C40.1673 40.0907 40.0927 40.1654 40.0007 40.1654L40.0007 33.1654C36.2267 33.1654 33.1673 36.2248 33.1673 39.9987L40.1673 39.9987ZM40.0007 40.1654C39.9086 40.1654 39.834 40.0907 39.834 39.9987L46.834 39.9987C46.834 36.2248 43.7746 33.1654 40.0007 33.1654L40.0007 40.1654ZM39.834 39.9987C39.834 39.9067 39.9086 39.832 40.0007 39.832L40.0007 46.832C43.7746 46.832 46.834 43.7726 46.834 39.9987L39.834 39.9987ZM40.0007 39.832C40.0927 39.832 40.1673 39.9067 40.1673 39.9987L33.1673 39.9987C33.1673 43.7726 36.2267 46.832 40.0007 46.832L40.0007 39.832Z" fill="#303437"/>
<path d="M36.6663 63.3346C36.6663 61.4937 38.1587 60.0013 39.9997 60.0013C41.8406 60.0013 43.333 61.4937 43.333 63.3346C43.333 65.1756 41.8406 66.668 39.9997 66.668C38.1587 66.668 36.6663 65.1756 36.6663 63.3346Z" fill="#303437"/>
<path d="M40.1663 63.3346C40.1663 63.4267 40.0917 63.5013 39.9997 63.5013L39.9997 56.5013C36.2257 56.5013 33.1663 59.5607 33.1663 63.3346L40.1663 63.3346ZM39.9997 63.5013C39.9076 63.5013 39.833 63.4267 39.833 63.3346L46.833 63.3346C46.833 59.5607 43.7736 56.5013 39.9997 56.5013L39.9997 63.5013ZM39.833 63.3346C39.833 63.2426 39.9076 63.168 39.9997 63.168L39.9997 70.168C43.7736 70.168 46.833 67.1086 46.833 63.3346L39.833 63.3346ZM39.9997 63.168C40.0917 63.168 40.1663 63.2426 40.1663 63.3346L33.1663 63.3346C33.1663 67.1086 36.2257 70.168 39.9997 70.168L39.9997 63.168Z" fill="#303437"/>
<path d="M36.6663 16.6667C36.6663 14.8257 38.1587 13.3333 39.9997 13.3333C41.8406 13.3333 43.333 14.8257 43.333 16.6667C43.333 18.5076 41.8406 20 39.9997 20C38.1587 20 36.6663 18.5076 36.6663 16.6667Z" fill="#303437"/>
<path d="M40.1663 16.6667C40.1663 16.7587 40.0917 16.8333 39.9997 16.8333L39.9997 9.83334C36.2257 9.83334 33.1663 12.8927 33.1663 16.6667L40.1663 16.6667ZM39.9997 16.8333C39.9076 16.8333 39.833 16.7587 39.833 16.6667L46.833 16.6667C46.833 12.8927 43.7736 9.83334 39.9997 9.83334L39.9997 16.8333ZM39.833 16.6667C39.833 16.5746 39.9076 16.5 39.9997 16.5L39.9997 23.5C43.7736 23.5 46.833 20.4406 46.833 16.6667L39.833 16.6667ZM39.9997 16.5C40.0917 16.5 40.1663 16.5746 40.1663 16.6667L33.1663 16.6667C33.1663 20.4406 36.2257 23.5 39.9997 23.5L39.9997 16.5Z" fill="#303437"/>
</svg>
