<svg width="29" height="70" viewBox="0 0 29 70" fill="none" xmlns="http://www.w3.org/2000/svg">
<path d="M15.36 9.68119C15.6205 9.95245 15.6241 10.1732 15.6891 29.3617C15.7253 40.0351 15.8043 48.8474 15.8645 48.9447C15.9249 49.0419 16.3687 49.3151 16.8507 49.5517C17.9325 50.0826 19.0546 51.2159 19.5536 52.2819C21.2157 55.8324 19.135 59.9792 15.3529 60.6539C13.626 60.9619 11.8635 60.3477 10.5503 58.9802C9.64667 58.0392 9.16238 57.0596 8.95436 55.7526C8.56014 53.2757 9.91321 50.6633 12.1633 49.5567C12.647 49.3189 13.1056 49.0019 13.1824 48.8524C13.2792 48.6641 13.3222 42.6979 13.3222 29.4628C13.3222 11.0777 13.2942 9.76902 13.7958 9.48892C13.861 9.45253 13.9351 9.4335 14.0194 9.39664C14.4203 9.22137 15.0457 9.35406 15.36 9.68119Z" fill="#9BC9FF"/>
<path d="M13.233 0.0935473C10.8061 0.547063 8.73016 2.11246 7.61417 4.33074C7.5522 4.45393 7.49441 4.56362 7.44051 4.66595C7.36043 4.81794 7.28893 4.95367 7.22503 5.09318C6.69198 6.25709 6.68872 7.68412 6.65825 21.0167L6.65825 21.0193C6.65579 22.0949 6.65316 23.2479 6.65005 24.4845L6.60574 42.1022L5.41164 43.0952C-0.7344 48.2058 -1.79924 57.4872 3.00924 64.0357C6.47043 68.7495 12.5565 71.0036 17.9655 69.575C23.5068 68.1115 27.5671 63.6898 28.7774 57.8005C29.0721 56.3663 29.0747 53.3998 28.7824 51.9858C28.0238 48.3157 26.2401 45.2594 23.5797 43.0711L22.4249 42.1214L22.3733 40.6709C22.3242 39.2855 22.3055 39.2058 21.9568 38.8935C21.4322 38.4237 20.7658 38.5091 20.3285 39.1023C20.0782 39.4416 20.1018 42.9378 20.3567 43.3169C20.465 43.4778 21.0124 43.9459 21.5731 44.3568C23.8139 45.9991 25.4416 48.299 26.2476 50.9621C27.6346 55.5451 26.5691 60.3201 23.3954 63.7425C22.242 64.9864 21.1975 65.7761 19.756 66.4936C13.7181 69.4995 6.439 66.7905 3.45869 60.4282C2.63396 58.6679 2.2801 57.2493 2.18937 55.3406C1.98806 51.1093 4.02477 46.8462 7.43823 44.3539C7.99892 43.9445 8.54633 43.4778 8.65455 43.3169C8.82681 43.0609 8.85166 40.8282 8.85363 25.4248L8.85376 24.3553C8.85564 8.09703 8.8558 6.74192 9.39229 5.68088C9.43802 5.59044 9.48765 5.50214 9.5415 5.40692L9.55235 5.38776C9.56612 5.36341 9.58027 5.33841 9.5946 5.31295C10.8083 3.15628 13.1198 1.9769 15.3529 2.37523C18.37 2.91351 20.1561 5.32377 20.1591 8.86083C20.1598 9.57342 20.2151 9.82099 20.4266 10.0573C21.0117 10.7115 21.8842 10.5459 22.2165 9.71788C22.4507 9.13415 22.3657 7.26778 22.0467 5.98952C21.6069 4.2275 20.3002 2.34565 18.8089 1.32675C17.2986 0.294836 14.9434 -0.22605 13.233 0.0935473Z" fill="#1E81CE"/>
<path d="M20.1599 36.1702V37.3341H22.3953H24.6307V36.1702V35.0063H22.3953H20.1599V36.1702Z" fill="#1E81CE"/>
<path d="M20.1599 31.5146V32.6785H22.3953H24.6307V31.5146V30.3507H22.3953H20.1599V31.5146Z" fill="#1E81CE"/>
<path d="M20.1599 26.8622V28.0294L22.3624 27.9919L24.565 27.9544L24.6031 26.8247L24.6414 25.695H22.4006H20.1599V26.8622Z" fill="#1E81CE"/>
<path d="M20.1599 12.8235V13.9189H22.3953H24.6307V12.8235V11.728H22.3953H20.1599V12.8235Z" fill="#1E81CE"/>
<path d="M20.1599 17.4791V18.5746H22.3953H24.6307V17.4791V16.3837H22.3953H20.1599V17.4791Z" fill="#1E81CE"/>
<path d="M20.1599 22.1348V23.2302H22.3953H24.6307V22.1348V21.0393H22.3953H20.1599V22.1348Z" fill="#1E81CE"/>
<path fill-rule="evenodd" clip-rule="evenodd" d="M13.891 7.08579C12.8937 7.27791 12.009 7.95257 11.5103 8.90123C11.2998 9.30175 11.2817 10.6612 11.2493 28.3906L11.2147 47.4495L10.4366 47.9418C7.11357 50.0438 5.79942 54.5219 7.4118 58.2484C8.66323 61.1404 11.3942 62.9656 14.4726 62.9671C15.8143 62.9678 16.6708 62.7689 17.8588 62.1808C19.6851 61.2768 21.2339 59.4811 21.8875 57.5098C22.1535 56.7074 22.1973 56.3174 22.1928 54.7929C22.1881 53.198 22.1512 52.9173 21.8397 52.0957C21.1562 50.2938 20.0239 48.8585 18.5507 47.9264L17.793 47.4472L17.7901 28.5265C17.7873 10.4981 17.7759 9.57958 17.547 9.05486C16.9245 7.6279 15.384 6.7981 13.891 7.08579ZM15.6891 29.3617C15.6241 10.1732 15.6205 9.95245 15.36 9.68119C15.0457 9.35406 14.4203 9.22137 14.0194 9.39664C13.9351 9.4335 13.861 9.45253 13.7958 9.48892C13.2942 9.76902 13.3222 11.0777 13.3222 29.4628C13.3222 42.6979 13.2792 48.6641 13.1824 48.8524C13.1056 49.0019 12.647 49.3189 12.1633 49.5567C9.91321 50.6633 8.56014 53.2757 8.95436 55.7526C9.16238 57.0596 9.64667 58.0392 10.5503 58.9802C11.8635 60.3477 13.626 60.9619 15.3529 60.6539C19.135 59.9792 21.2157 55.8324 19.5536 52.2819C19.0546 51.2159 17.9325 50.0826 16.8507 49.5517C16.3687 49.3151 15.9249 49.0419 15.8645 48.9447C15.8043 48.8474 15.7253 40.0351 15.6891 29.3617Z" fill="#1E81CE"/>
</svg>
