<svg width="64" height="55" viewBox="0 0 64 55" fill="none" xmlns="http://www.w3.org/2000/svg">
<path d="M59.5644 39.1953H4.43564C1.98591 39.1953 0 41.1766 0 43.6206V50.5746C0 53.0186 1.98591 54.9999 4.43564 54.9999H59.5644C62.0141 54.9999 64 53.0186 64 50.5746V43.6206C64 41.1766 62.0141 39.1953 59.5644 39.1953Z" fill="#FFB655"/>
<path d="M33.5847 0H30.4164C28.6666 0 27.248 1.41519 27.248 3.16092V42.9885C27.248 44.7342 28.6666 46.1494 30.4164 46.1494H33.5847C35.3345 46.1494 36.753 44.7342 36.753 42.9885V3.16092C36.753 1.41519 35.3345 0 33.5847 0Z" fill="#FFB655"/>
<path d="M52.9102 8.217C54.4851 8.217 55.7617 6.94333 55.7617 5.37217C55.7617 3.80102 54.4851 2.52734 52.9102 2.52734L11.0885 2.52734C9.51362 2.52734 8.23697 3.80102 8.23697 5.37217C8.23697 6.94333 9.51362 8.217 11.0885 8.217L52.9102 8.217Z" fill="#FFB655"/>
<path d="M46.5584 7.28477C45.6923 6.4207 44.2881 6.4207 43.4219 7.28477L29.3078 21.366C28.4417 22.23 28.4417 23.631 29.3078 24.4951C30.1739 25.3592 31.5782 25.3592 32.4443 24.4951L44.9902 11.9785L57.5361 24.4951C58.4022 25.3592 59.8064 25.3592 60.6725 24.4951C61.5387 23.631 61.5387 22.23 60.6725 21.366L46.5584 7.28477ZM42.7723 47.4126C42.7723 48.6346 43.7653 49.6252 44.9902 49.6252C46.215 49.6252 47.208 48.6346 47.208 47.4126H42.7723ZM42.7723 8.84936V47.4126H47.208V8.84936H42.7723Z" fill="#FE5023"/>
</svg>
